<?xml version="1.0" encoding="UTF-8"?>
<!DOCTYPE svg PUBLIC "-//W3C//DTD SVG 1.1//EN" "http://www.w3.org/Graphics/SVG/1.1/DTD/svg11.dtd">
<!-- Creator: CorelDRAW X8 -->
<svg xmlns="http://www.w3.org/2000/svg" xml:space="preserve" width="100%" height="50%" version="1.1" style="shape-rendering:geometricPrecision; text-rendering:geometricPrecision; image-rendering:optimizeQuality; fill-rule:evenodd; clip-rule:evenodd"
viewBox="0 0 29700 21000"
 xmlns:xlink="http://www.w3.org/1999/xlink">
 <defs>
  <style type="text/css">
   <![CDATA[
    .str0 {stroke:#FEFEFE;stroke-width:67.73}
    .fil0 {fill:none;fill-rule:nonzero}
    .fil5 {fill:#FEFEFE}
    .fil15 {fill:#FAD3C9}
    .fil8 {fill:#F8BF9F}
    .fil7 {fill:#F6AE84}
    .fil6 {fill:#EF816B}
    .fil2 {fill:#EE7970}
    .fil10 {fill:#EB6273}
    .fil11 {fill:#E94D65}
    .fil23 {fill:#EEF4FA}
    .fil12 {fill:#D9354C}
    .fil14 {fill:#E3EFF4}
    .fil16 {fill:#D0D2D4}
    .fil13 {fill:#CCE3EC}
    .fil24 {fill:#ADB5DB}
    .fil4 {fill:#A0CDDC}
    .fil21 {fill:#3E92CF}
    .fil22 {fill:#1A7BB9}
    .fil19 {fill:#1F61A7}
    .fil9 {fill:#202227}
    .fil20 {fill:#284C8B}
    .fil17 {fill:#314076}
    .fil18 {fill:#31325A}
    .fil1 {fill:#2E2F50}
    .fil3 {fill:#343468}
    .fil25 {fill:#FEFEFE;fill-rule:nonzero}
   ]]>
  </style>
    <mask id="id0">
  <linearGradient id="id1" gradientUnits="userSpaceOnUse" x1="14513.4" y1="14784.5" x2="14513.5" y2="9501.62">
   <stop offset="0" style="stop-opacity:1; stop-color:white"/>
   <stop offset="1" style="stop-opacity:0; stop-color:white"/>
  </linearGradient>
     <rect style="fill:url(#id1)" x="2473" y="11811" width="24205" height="1696"/>
    </mask>
    <mask id="id2">
  <linearGradient id="id3" gradientUnits="userSpaceOnUse" x1="14513.4" y1="14784.5" x2="14513.5" y2="9501.62">
   <stop offset="0" style="stop-opacity:1; stop-color:white"/>
   <stop offset="1" style="stop-opacity:0; stop-color:white"/>
  </linearGradient>
     <rect style="fill:url(#id3)" x="2439" y="11777" width="24273" height="1763"/>
    </mask>
    <mask id="id4">
  <linearGradient id="id5" gradientUnits="userSpaceOnUse" x1="14513.4" y1="14784.5" x2="14513.5" y2="9501.62">
   <stop offset="0" style="stop-opacity:1; stop-color:white"/>
   <stop offset="1" style="stop-opacity:0; stop-color:white"/>
  </linearGradient>
     <rect style="fill:url(#id5)" x="6594" y="10398" width="15470" height="783"/>
    </mask>
 </defs>
 <g id="Layer_x0020_1">
  <metadata id="CorelCorpID_0Corel-Layer"/>
  <g id="_2263045988160">
   <path class="fil0" style="mask:url(#id0)" d="M2473 12158l877 0 0 1332 807 0 0 -1332 877 0 0 -323 -2561 0 0 323zm6226 500c0,-498 -750,-847 -1694,-847 -938,0 -1702,349 -1702,847 0,497 764,849 1702,849 939,0 1694,-352 1694,-849zm-2571 0c0,-295 340,-481 877,-481 529,0 873,186 873,481 0,290 -344,481 -873,481 -537,0 -877,-191 -877,-481zm4566 -842c-991,0 -1684,349 -1684,844 0,495 698,842 1688,842 873,0 1425,-285 1594,-571l0 -375 -1754 0 0 298 1023 0c-122,186 -400,292 -801,292 -580,0 -929,-179 -929,-486 0,-288 344,-471 863,-471 301,0 528,58 650,169l892 0c-175,-339 -750,-542 -1542,-542zm4075 19l-2028 0 0 1655 2028 0 0 -323 -1222 0 0 -363 1080 0 0 -311 -1080 0 0 -335 1222 0 0 -323zm344 323l877 0 0 1332 807 0 0 -1332 877 0 0 -323 -2561 0 0 323zm5028 1332l806 0 0 -1655 -806 0 0 648 -1255 0 0 -648 -806 0 0 1655 806 0 0 -681 1255 0 0 681zm3414 -1655l-2028 0 0 1655 2028 0 0 -323 -1221 0 0 -363 1080 0 0 -311 -1080 0 0 -335 1221 0 0 -323zm2274 537c0,130 -142,208 -444,208l-500 0 0 -410 500 0c302,0 444,80 444,202zm-1750 -537l0 1655 806 0 0 -625 194 0 688 625 911 0 -764 -655c509,-76 735,-272 735,-479 0,-288 -405,-521 -1216,-521l-1354 0z"/>
   <path id="1" class="fil0 str0" style="mask:url(#id2)" d="M2473 12158l877 0 0 1332 807 0 0 -1332 877 0 0 -323 -2561 0 0 323zm6226 500c0,-498 -750,-847 -1694,-847 -938,0 -1702,349 -1702,847 0,497 764,849 1702,849 939,0 1694,-352 1694,-849zm-2571 0c0,-295 340,-481 877,-481 529,0 873,186 873,481 0,290 -344,481 -873,481 -537,0 -877,-191 -877,-481zm4566 -842c-991,0 -1684,349 -1684,844 0,495 698,842 1688,842 873,0 1425,-285 1594,-571l0 -375 -1754 0 0 298 1023 0c-122,186 -400,292 -801,292 -580,0 -929,-179 -929,-486 0,-288 344,-471 863,-471 301,0 528,58 650,169l892 0c-175,-339 -750,-542 -1542,-542zm4075 19l-2028 0 0 1655 2028 0 0 -323 -1222 0 0 -363 1080 0 0 -311 -1080 0 0 -335 1222 0 0 -323zm344 323l877 0 0 1332 807 0 0 -1332 877 0 0 -323 -2561 0 0 323zm5028 1332l806 0 0 -1655 -806 0 0 648 -1255 0 0 -648 -806 0 0 1655 806 0 0 -681 1255 0 0 681zm3414 -1655l-2028 0 0 1655 2028 0 0 -323 -1221 0 0 -363 1080 0 0 -311 -1080 0 0 -335 1221 0 0 -323zm2274 537c0,130 -142,208 -444,208l-500 0 0 -410 500 0c302,0 444,80 444,202zm-1750 -537l0 1655 806 0 0 -625 194 0 688 625 911 0 -764 -655c509,-76 735,-272 735,-479 0,-288 -405,-521 -1216,-521l-1354 0z"/>
   <polygon class="fil1" points="23142,19243 17648,19243 17648,20845 22793,20845 "/>
   <path class="fil1" d="M17643 15451c0,0 -493,66 -774,371 -281,304 -967,1266 -1138,1535 -172,270 450,1424 1243,2039l1042 0c0,0 -1006,-1538 -1050,-1686 -43,-148 953,-1009 953,-1009 275,-432 258,-863 -276,-1250z"/>
   <path class="fil2" d="M20381 13938l0 0c463,0 841,324 841,719l0 584c0,395 -378,719 -841,719l0 0c-462,0 -841,-324 -841,-719l0 -584c0,-395 379,-719 841,-719z"/>
   <path class="fil1" d="M23147 15451c0,0 492,66 773,371 282,304 967,1266 1139,1535 171,270 -451,1424 -1244,2039l-1042 0c0,0 1007,-1538 1050,-1686 43,-148 -952,-1009 -952,-1009 -275,-432 -259,-863 276,-1250z"/>
   <path class="fil3" d="M20602 15413l-137 8 -70 24 -71 -24 -136 -8 -803 -315 -1742 353 -87 836c130,831 539,2164 539,2228 0,64 -276,516 -447,790l5494 0c-172,-274 -448,-726 -448,-790 0,-64 409,-1397 540,-2228l-87 -836 -1743 -353 -802 315z"/>
   <path class="fil4" d="M20215 15427l82 -6c0,0 16,8 18,21 3,12 4,50 4,50l-62 10c0,0 -123,1 -122,-1 1,-2 80,-74 80,-74z"/>
   <path class="fil4" d="M20547 15427l-82 -6c0,0 -16,8 -18,21 -2,12 -4,50 -4,50l62 10c0,0 124,1 123,-1 -2,-2 -81,-74 -81,-74z"/>
   <path class="fil5" d="M21222 14965c0,0 72,-5 97,0 25,5 110,156 163,193 0,0 47,31 12,82 -35,51 -492,471 -492,471 0,0 -33,22 -85,0 -53,-22 -452,-290 -452,-290l757 -422 0 -34z"/>
   <path class="fil5" d="M19540 14969c0,0 -72,-5 -97,0 -25,6 -110,152 -163,189 0,0 -47,31 -12,82 35,51 492,471 492,471 0,0 33,22 85,0 53,-22 452,-290 452,-290l-757 -418 0 -34z"/>
   <path class="fil6" d="M21907 13819c12,1 23,1 34,3l0 0 0 0c204,22 358,112 361,221 3,126 -200,230 -453,232 -253,1 -460,-100 -463,-227 -2,-73 66,-139 172,-182 -12,68 8,152 181,161l-4 -132c-1,-54 99,-78 172,-76z"/>
   <path class="fil6" d="M18888 13818c-11,1 -22,2 -33,3l-1 0 0 0c-204,21 -361,110 -366,219 -7,126 193,232 446,235 253,3 463,-97 470,-223 3,-74 -62,-140 -168,-183 11,67 -12,151 -185,159l7 -132c3,-54 -96,-79 -170,-78z"/>
   <path class="fil7" d="M20395 14966c-855,0 -1569,-528 -1569,-944l0 -554c0,-431 706,-784 1569,-784l0 0c862,0 1568,353 1568,784l0 542c0,456 -622,956 -1568,956z"/>
   <path class="fil2" d="M21472 14001c-146,2 -263,62 -260,135 3,73 123,131 269,130 146,-2 263,-62 260,-135 -3,-73 -123,-131 -269,-130z"/>
   <path class="fil2" d="M19308 14022c-146,2 -262,62 -259,135 2,73 123,131 269,130 146,-2 262,-62 259,-135 -2,-73 -123,-131 -269,-130z"/>
   <path class="fil1" d="M19878 13678c27,12 29,33 5,46 -25,13 -67,14 -93,2 -1,0 -160,-75 -377,-48 -35,5 -71,-6 -80,-24 -9,-17 12,-35 48,-40 286,-36 497,63 497,64z"/>
   <path class="fil1" d="M21410 13620c35,5 56,23 47,40 -9,18 -45,28 -80,24 -1,0 -212,-30 -378,45 -27,12 -69,11 -93,-2 -25,-14 -22,-35 5,-47 219,-99 498,-60 499,-60z"/>
   <path class="fil8" d="M20437 14039c29,40 80,112 76,124 -6,17 -180,32 -226,10 -30,-15 8,-79 41,-123 45,-59 70,-64 109,-11z"/>
   <path class="fil9" d="M20724 14353c0,91 -147,165 -329,165 -182,0 -330,-74 -330,-165 0,-17 27,-30 61,-30l538 0c33,0 60,13 60,30z"/>
   <path class="fil5" d="M20159 14323l472 0 0 27c0,15 -24,27 -53,27l-366 0c-29,0 -53,-12 -53,-27l0 -27z"/>
   <path class="fil10" d="M20634 14466c-60,32 -145,52 -239,52 -94,0 -179,-20 -239,-52 60,-31 145,-51 239,-51 94,0 179,20 239,51z"/>
   <path class="fil1" d="M19628 13983c104,0 188,-43 188,-95 0,-52 -84,-94 -188,-94 -105,0 -189,42 -189,94 0,52 84,95 189,95z"/>
   <path class="fil1" d="M21162 13983c104,0 189,-43 189,-95 0,-52 -85,-94 -189,-94 -104,0 -189,42 -189,94 0,52 85,95 189,95z"/>
   <path class="fil11" d="M19931 15452c10,-25 56,-20 56,-20l290 74 118 68 -118 69 -290 74c0,0 -46,5 -56,-21l88 -122 -88 -122z"/>
   <path class="fil11" d="M20859 15452c-10,-25 -56,-20 -56,-20l-291 74 -117 68 117 69 291 74c0,0 46,5 56,-21l-88 -122 88 -122z"/>
   <path class="fil12" d="M20333 15478l123 0c31,0 56,12 56,28l0 137c0,15 -25,28 -56,28l-123 0c-30,0 -56,-13 -56,-28l0 -137c0,-16 26,-28 56,-28z"/>
   <path class="fil4" d="M21555 14627c-13,1 -25,-4 -26,-10 -2,-7 8,-13 21,-13l8 -1c142,-9 259,-74 337,-154 60,-61 98,-130 107,-188 16,-3 33,-7 49,-11 -6,64 -46,142 -113,210 -85,86 -214,157 -374,167l-9 0z"/>
   <path class="fil4" d="M19235 14627c13,1 25,-4 26,-10 2,-7 -8,-13 -21,-13l-8 -1c-143,-9 -259,-74 -337,-154 -61,-61 -98,-130 -107,-188 -17,-3 -33,-7 -49,-11 6,64 46,142 113,210 85,86 213,157 374,167l9 0z"/>
   <path class="fil1" d="M19762 13235c-167,0 -490,39 -490,206 0,167 -63,299 -276,299 0,0 0,58 0,131 0,73 -14,147 -152,147 0,-157 -96,-219 -96,-219 0,0 0,-211 0,-395 0,-184 103,-431 586,-601 625,-219 1496,-219 2122,0 483,170 586,417 586,601 0,184 0,395 0,395 0,0 -96,62 -96,219 -138,0 -152,-74 -152,-147 0,-73 0,-131 0,-131 -213,0 -276,-132 -276,-299 0,-167 -323,-206 -490,-206 -422,0 -844,0 -1266,0z"/>
   <path class="fil1" d="M18747 13799c0,0 135,402 135,591 0,190 464,487 866,556 403,69 543,65 647,65 104,0 244,4 646,-65 403,-69 900,-362 900,-551 0,-190 101,-596 101,-596l-214 -63c0,108 -81,356 -97,492 -17,141 -229,154 -504,191 -197,26 -241,290 -399,290 -158,0 -256,-30 -300,-39 -44,-10 -133,-10 -133,-10 0,0 -89,0 -134,10 -44,9 -141,39 -300,39 -158,0 -168,-268 -365,-294 -275,-37 -487,-50 -504,-191 -16,-136 -130,-380 -130,-488l-215 63z"/>
   <path class="fil3" d="M21794 13752l0 3 0 78c0,35 55,63 124,63l0 0c68,0 124,-28 124,-63l0 -429c0,-46 -7,-97 -24,-149l-1 0c-286,-70 -647,30 -650,31 86,31 151,80 151,155 0,167 63,299 276,299l0 12zm-2371 -466c-86,31 -151,80 -151,155 0,167 -63,299 -276,299l0 93c0,35 -56,63 -124,63l0 0c-69,0 -125,-28 -125,-63l0 -78 1 -3 0 -348c0,-46 6,-97 24,-149 288,-71 651,31 651,31l0 0 0 0z"/>
   <path class="fil4" d="M21682 14140c-4,7 -18,11 -32,9 -13,-2 -21,-9 -17,-16 1,-1 128,-216 346,-305l13 26c-193,87 -310,286 -310,286z"/>
   <path class="fil4" d="M19108 14140c4,7 18,11 31,9 14,-2 21,-9 17,-16 0,-1 -127,-216 -345,-305l-13 26c192,87 310,286 310,286z"/>
   <path class="fil5" d="M20395 14044l1291 34c0,0 51,8 50,31 -2,24 -47,481 -47,481 0,0 -2,42 -54,77 -51,36 -457,370 -1240,370 -784,0 -1190,-334 -1241,-370 -51,-35 -53,-77 -53,-77 0,0 -46,-457 -47,-481 -2,-23 50,-31 50,-31l1291 -34z"/>
   <path class="fil13" d="M20395 14094l-1241 33c11,153 32,308 46,461 1,17 16,37 35,50 34,24 65,48 102,71 68,43 144,83 227,119 237,101 516,160 831,160 314,0 593,-59 830,-160 84,-36 159,-76 227,-119 38,-23 68,-47 103,-71 19,-13 33,-33 35,-50 14,-153 34,-308 45,-461l-1240 -33z"/>
   <path class="fil4" d="M21594 14545c4,-44 9,-88 13,-132l-853 -30 840 162zm-2396 23l2 20c1,17 16,37 35,50 34,24 65,48 102,71 68,43 144,83 227,119 237,101 516,160 831,160 314,0 593,-59 830,-160 84,-36 159,-76 227,-119 38,-23 68,-47 103,-71 5,-3 10,-8 14,-12 0,0 -201,109 -899,109 -698,0 -1472,-167 -1472,-167l0 0zm-25 -242c6,60 13,120 19,180l1144 -220 -1163 40 0 0z"/>
   <path class="fil14" d="M7567 15451c0,0 -492,66 -773,371 -282,304 -967,1266 -1138,1535 -172,270 450,1424 1243,2039l1042 0c0,0 -1006,-1538 -1050,-1686 -43,-148 953,-1009 953,-1009 274,-432 258,-863 -277,-1250z"/>
   <path class="fil2" d="M10306 13938l0 0c462,0 841,324 841,719l0 584c0,395 -379,719 -841,719l0 0c-463,0 -841,-324 -841,-719l0 -584c0,-395 378,-719 841,-719z"/>
   <path class="fil14" d="M13072 15451c0,0 492,66 773,371 282,304 967,1266 1139,1535 171,270 -451,1424 -1244,2039l-1042 0c0,0 1006,-1538 1050,-1686 43,-148 -953,-1009 -953,-1009 -274,-432 -258,-863 277,-1250z"/>
   <path class="fil5" d="M10526 15413l-136 8 -70 24 -71 -24 -136 -8 -803 -315 -1742 353 -87 836c130,831 539,2164 539,2228 0,64 -276,516 -447,790l5493 0c-171,-274 -447,-726 -447,-790 0,-64 409,-1397 539,-2228l-86 -836 -1743 -353 -803 315z"/>
   <polygon class="fil11" points="10494,15632 10531,15732 10911,18210 10306,18853 9701,18210 10080,15732 10118,15632 10306,15693 "/>
   <path class="fil12" d="M10494 15632l37 100 380 2478 -605 643c0,0 355,-554 370,-640 14,-86 -214,-2449 -281,-2471 -67,-21 -201,-19 -201,-19l86 -38 26 8 188 -61z"/>
   <path class="fil4" d="M10140 15427l82 -6c0,0 16,8 18,21 2,12 4,50 4,50l-62 10c0,0 -124,1 -123,-1 2,-2 81,-74 81,-74z"/>
   <path class="fil4" d="M10472 15427l-82 -6c0,0 -16,8 -18,21 -3,12 -4,50 -4,50l62 10c0,0 123,1 122,-1 -1,-2 -80,-74 -80,-74z"/>
   <path class="fil11" d="M10080 15732l-177 -194c153,-72 652,-72 806,0l-178 194c-125,-16 -325,-16 -451,0z"/>
   <path class="fil12" d="M10310 15484c162,0 323,18 399,54l-178 194c-48,-6 -107,-10 -170,-11 34,-14 78,-32 79,-37 3,-7 0,-174 -14,-177l-116 -23zm-336 131l-71 -77c55,-26 155,-43 268,-50l-197 127 0 0z"/>
   <path class="fil13" d="M11147 14967c0,0 72,-5 97,0 25,6 110,154 163,191 0,0 47,31 12,82 -35,51 -492,471 -492,471 0,0 -33,22 -85,0 -53,-22 -452,-290 -452,-290l757 -420 0 -34z"/>
   <path class="fil13" d="M9465 14959c0,0 -72,-6 -97,0 -25,5 -110,162 -163,199 0,0 -47,31 -12,82 35,51 492,471 492,471 0,0 33,22 85,0 53,-22 452,-290 452,-290l-757 -429 0 -33z"/>
   <path class="fil6" d="M11832 13819c12,1 23,1 34,3l0 0 0 0c204,22 358,112 361,221 3,126 -200,230 -453,232 -253,1 -460,-100 -463,-227 -2,-73 65,-139 172,-182 -13,68 8,152 180,161l-3 -132c-1,-54 99,-78 172,-76z"/>
   <path class="fil6" d="M8813 13818c-11,1 -22,2 -34,3l0 0 0 0c-204,21 -361,110 -367,219 -6,126 194,232 446,235 253,3 464,-97 470,-223 4,-74 -62,-140 -167,-183 11,67 -12,151 -185,159l7 -132c3,-54 -97,-79 -170,-78z"/>
   <path class="fil7" d="M10320 14966c-856,0 -1569,-528 -1569,-944l0 -554c0,-431 706,-784 1568,-784l1 0c862,0 1568,353 1568,784l0 542c0,456 -622,956 -1568,956z"/>
   <path class="fil2" d="M11396 14001c-146,2 -262,62 -259,135 3,73 123,131 269,130 146,-2 262,-62 260,-135 -3,-73 -124,-131 -270,-130z"/>
   <path class="fil2" d="M9233 14022c-146,2 -262,62 -260,135 3,73 124,131 270,130 146,-2 262,-62 259,-135 -3,-73 -123,-131 -269,-130z"/>
   <path class="fil1" d="M9799 13637c33,8 47,27 32,44 -15,16 -54,24 -87,16 0,0 -198,-47 -388,13 -30,9 -71,5 -91,-11 -19,-15 -10,-36 21,-45 250,-79 512,-17 513,-17z"/>
   <path class="fil1" d="M11350 13652c32,9 43,29 25,45 -17,15 -57,21 -89,12 -1,0 -190,-55 -389,-3 -32,8 -72,2 -89,-14 -16,-16 -4,-36 28,-44 262,-69 513,4 514,4z"/>
   <path class="fil8" d="M10362 14039c29,40 80,112 76,124 -6,17 -180,32 -226,10 -30,-15 8,-79 41,-123 44,-59 69,-64 109,-11z"/>
   <path class="fil9" d="M10649 14353c0,91 -147,165 -329,165 -182,0 -330,-74 -330,-165 0,-17 27,-30 61,-30l537 0c34,0 61,13 61,30z"/>
   <path class="fil5" d="M10084 14323l471 0 0 27c0,15 -23,27 -53,27l-365 0c-29,0 -53,-12 -53,-27l0 -27z"/>
   <path class="fil10" d="M10558 14466c-60,32 -144,52 -238,52 -94,0 -179,-20 -239,-52 60,-31 145,-51 239,-51 94,0 178,20 238,51z"/>
   <path class="fil1" d="M9552 13983c104,0 189,-43 189,-95 0,-52 -85,-94 -189,-94 -104,0 -189,42 -189,94 0,52 85,95 189,95z"/>
   <path class="fil1" d="M11087 13983c104,0 189,-43 189,-95 0,-52 -85,-94 -189,-94 -104,0 -189,42 -189,94 0,52 85,95 189,95z"/>
   <path class="fil4" d="M11538 14156c-4,6 -17,10 -30,8 -12,-2 -20,-9 -16,-15 1,-1 121,-204 327,-289l13 25c-183,82 -294,270 -294,271z"/>
   <path class="fil4" d="M11480 14627c-13,1 -25,-4 -27,-10 -1,-7 8,-13 21,-13l9 -1c142,-9 258,-74 337,-154 60,-61 97,-130 106,-188 17,-3 34,-7 49,-11 -6,64 -46,142 -113,210 -84,86 -213,157 -373,167l-9 0z"/>
   <path class="fil4" d="M9101 14156c4,6 17,10 30,8 13,-2 20,-9 16,-15 0,-1 -120,-204 -327,-289l-12 25c182,82 293,270 293,271z"/>
   <path class="fil4" d="M9160 14627c13,1 24,-4 26,-10 1,-7 -8,-13 -21,-13l-9 -1c-142,-9 -258,-74 -336,-154 -61,-61 -98,-130 -107,-188 -17,-3 -33,-7 -49,-11 6,64 46,142 113,210 85,86 213,157 374,167l9 0z"/>
   <path class="fil5" d="M10320 14065l1221 32c0,0 49,7 48,30 -2,22 -44,455 -44,455 0,0 -3,39 -51,73 -48,33 -433,350 -1174,350 -742,0 -1126,-317 -1175,-350 -48,-34 -50,-73 -50,-73 0,0 -43,-433 -45,-455 -1,-23 48,-30 48,-30l1222 -32z"/>
   <path class="fil13" d="M10320 14112l-1174 31c10,145 30,292 42,437 2,15 16,35 33,47 33,23 62,45 98,68 64,40 136,78 215,112 224,96 488,151 786,151 297,0 561,-55 786,-151 78,-34 150,-72 215,-112 35,-23 64,-45 97,-68 18,-12 31,-32 33,-47 13,-145 32,-292 43,-437l-1174 -31z"/>
   <path class="fil4" d="M11455 14539c4,-41 8,-83 13,-125l-808 -28 795 153zm-2268 22l1 19c2,15 16,35 33,47 33,23 62,45 98,68 64,40 136,78 215,112 224,96 488,151 786,151 297,0 561,-55 786,-151 78,-34 150,-72 215,-112 35,-23 64,-45 97,-68 5,-3 9,-7 13,-11 0,0 -190,103 -851,103 -661,0 -1393,-158 -1393,-158l0 0zm-24 -229c6,57 12,114 18,170l1083 -209 -1101 39 0 0z"/>
   <path class="fil3" d="M10320 12667c378,0 756,56 1072,167 488,171 593,421 593,607 0,186 0,399 0,399 0,0 -97,63 -97,222 -140,0 -154,-75 -154,-149 0,-74 0,-132 0,-132 -307,0 -344,-411 -287,-461 47,-40 192,-145 243,-176 0,0 21,-14 0,-21 -21,-6 -38,4 -125,49 -87,44 -193,91 -244,104 -76,19 -327,-6 -449,-6l-1105 0c-122,0 -372,25 -449,6 -51,-13 -157,-60 -244,-104 -87,-45 -104,-55 -125,-49 -21,7 0,21 0,21 51,31 196,136 243,176 57,50 20,461 -287,461 0,0 0,58 0,132 0,74 -14,149 -154,149 0,-159 -97,-222 -97,-222 0,0 0,-213 0,-399 0,-186 105,-436 593,-607 316,-111 694,-167 1073,-167z"/>
   <path class="fil1" d="M8949 13123c21,-6 38,4 125,49 87,44 193,91 244,104 77,19 327,-6 449,-6l1105 0c122,0 373,25 449,6 51,-13 157,-60 244,-104 87,-45 104,-55 125,-49 21,7 0,21 0,21l29 -17 95 -56c-90,-86 -225,-168 -422,-237 -316,-111 -694,-167 -1072,-167 -379,0 -757,56 -1073,167 -197,69 -332,151 -422,237l95 56 29 17c0,0 -21,-14 0,-21z"/>
   <polygon class="fil1" points="13066,19305 8528,19305 8528,20845 12779,20845 "/>
   <path class="fil1" d="M4903 16201c0,0 43,356 -225,676 0,0 -49,80 59,128 107,47 857,177 1816,177 959,0 1710,-130 1817,-177 107,-48 59,-128 59,-128 -268,-320 -225,-676 -225,-676l-1651 -81 -1650 81z"/>
   <path class="fil7" d="M4473 20845c150,-392 43,-752 -108,-1287 -289,-280 -509,-789 -357,-1154 153,-364 170,-891 170,-891 0,0 1438,-158 1565,-190 127,-32 139,-166 139,-166l671 -72 672 72c0,0 11,134 138,166 128,32 1565,190 1565,190 0,0 17,527 170,891 153,365 -68,874 -356,1154 -152,535 -259,895 -109,1287l-4160 0z"/>
   <path class="fil7" d="M6553 16311l0 0c370,0 672,152 672,336l0 644c0,184 -302,336 -672,336l0 0c-369,0 -672,-152 -672,-336l0 -644c0,-184 303,-336 672,-336z"/>
   <path class="fil2" d="M8019 16015c10,1 21,2 31,3l0 0 0 0c191,21 334,105 337,207 3,118 -187,215 -423,216 -236,2 -430,-93 -432,-211 -2,-69 61,-130 161,-170 -12,63 7,141 168,150l-3 -124c-1,-49 92,-72 161,-71z"/>
   <path class="fil2" d="M5094 16005c-11,1 -21,2 -32,3l0 0 0 0c-191,19 -337,102 -342,204 -6,118 180,216 416,219 236,3 433,-90 439,-208 3,-69 -58,-130 -157,-171 10,63 -11,141 -172,149l6 -124c3,-50 -90,-73 -158,-72z"/>
   <path class="fil7" d="M6553 17086c-798,0 -1464,-492 -1464,-881l0 -517c0,-402 659,-732 1464,-732l0 0c806,0 1465,330 1465,732l0 506c0,426 -581,892 -1465,892z"/>
   <path class="fil2" d="M5248 15358c84,-83 200,-157 338,-218l1664 113c0,0 600,208 761,369 4,22 7,44 7,66l0 56c-35,22 -96,39 -194,50 -743,85 -1257,-207 -1257,-207 0,0 486,8 -170,112 -655,103 -1098,-194 -1098,-194l-51 -147z"/>
   <path class="fil2" d="M7612 16344c-133,1 -240,56 -237,123 2,66 113,119 246,118 133,-1 239,-56 237,-123 -2,-67 -113,-120 -246,-118z"/>
   <path class="fil2" d="M5485 16363c-133,1 -239,56 -237,123 3,66 113,120 246,118 134,-1 240,-56 238,-123 -3,-66 -113,-119 -247,-118z"/>
   <path class="fil1" d="M6118 15836c31,7 44,25 30,40 -13,16 -50,23 -81,16 0,-1 -185,-44 -362,11 -29,9 -67,5 -85,-9 -18,-15 -9,-34 20,-43 233,-73 477,-15 478,-15z"/>
   <path class="fil1" d="M7566 15849c30,9 40,27 24,42 -17,15 -54,20 -84,12 0,0 -177,-51 -362,-3 -30,8 -68,2 -83,-13 -16,-15 -4,-34 26,-42 244,-63 478,4 479,4z"/>
   <path class="fil5" d="M6191 16560c-3,120 190,218 429,219 240,1 435,-95 437,-215l0 0c0,-20 -33,-37 -74,-38l-716 -3c-41,0 -75,17 -76,37l0 0z"/>
   <path class="fil5" d="M6349 16730c74,30 168,49 271,49 84,0 163,-11 230,-32 -33,-44 -129,-78 -247,-81 -111,-2 -210,24 -254,64z"/>
   <path class="fil5" d="M6958 16526l-672 -3c-12,37 22,75 72,84 61,10 548,6 582,-13 17,-10 20,-39 18,-68z"/>
   <path class="fil15" d="M6653 16221c31,44 86,125 81,138 -6,17 -193,22 -242,-5 -32,-18 8,-85 44,-129 48,-61 75,-64 117,-4z"/>
   <path class="fil5" d="M8143 17424l-289 1947 593 8c0,0 116,941 332,1466l-4433 0c216,-525 332,-1466 332,-1466l593 -8 -289 -1947c846,692 2315,692 3161,0z"/>
   <path class="fil16" d="M5975 20845l-1629 0c216,-525 332,-1466 332,-1466l593 -8 -232 -1567c201,-17 381,-31 532,-41 155,60 318,105 485,135 -33,2789 -82,2935 -82,2935l1 12z"/>
   <path class="fil16" d="M8086 17804l-232 1567 593 8c0,0 116,941 332,1466l-1629 0 1 -12c0,0 -49,-146 -82,-2935 167,-30 330,-75 485,-135 151,10 331,24 532,41z"/>
   <path class="fil12" d="M7256 17661c0,0 -73,-45 -98,-78 -25,-33 -16,-55 57,-92 74,-37 353,-166 406,-191 53,-24 109,-13 137,1 29,15 137,80 137,80 0,0 -186,175 -639,280z"/>
   <path class="fil11" d="M7256 17661c0,0 -30,50 -30,122 0,72 49,1070 82,1570 32,500 49,1316 49,1378 0,61 57,82 156,73 98,-8 1303,-139 1713,-188 0,0 156,-45 156,-127 0,-82 -189,-1550 -189,-1550 0,0 -374,-982 248,-1266 0,0 -59,-52 -182,-99 -123,-47 -1364,-193 -1364,-193l-639 280z"/>
   <path class="fil12" d="M5869 17661c0,0 73,-45 98,-78 24,-33 16,-55 -57,-92 -74,-37 -353,-166 -406,-191 -54,-24 -109,-13 -138,1 -28,15 -136,80 -136,80 0,0 186,175 639,280z"/>
   <path class="fil11" d="M5869 17661c0,0 30,50 30,122 0,72 -49,1070 -82,1570 -33,500 -49,1316 -49,1378 0,61 -57,82 -156,73 -98,-8 -1303,-139 -1713,-188 0,0 -156,-45 -156,-127 0,-82 189,-1550 189,-1550 0,0 373,-982 -248,-1266 0,0 59,-52 182,-99 123,-47 1364,-193 1364,-193l639 280z"/>
   <path class="fil2" d="M7225 17146l0 -160c-193,62 -416,99 -662,100 -4,0 -7,0 -10,0 -3,0 -6,0 -9,0 -238,-1 -463,-45 -663,-118l0 194c-3,24 -25,133 -138,161 -20,5 -70,13 -142,23 14,6 87,44 102,51l1522 -251z"/>
   <path class="fil1" d="M5089 16180c0,0 332,-66 199,-260 0,0 371,-123 284,-456 43,80 546,372 1115,284 354,-55 169,-192 169,-192 0,0 287,178 806,155 0,0 -133,213 230,261 0,0 -41,197 126,213 0,0 34,-174 185,-133 0,0 222,-537 124,-826 -99,-290 -1618,-525 -2056,-525 -437,0 -1158,257 -1202,448 0,0 -481,55 -514,186 -33,131 281,736 281,736 0,0 253,-42 253,109z"/>
   <path class="fil1" d="M7320 16074c-104,0 -189,42 -189,94 0,53 85,95 189,95 105,0 189,-42 189,-95 0,-5 -1,-11 -3,-17l6 0c22,-2 45,-6 68,-13 10,-3 13,-10 6,-15 -6,-5 -20,-7 -30,-4 -21,7 -43,10 -63,11l0 0c21,-4 43,-11 61,-22 8,-5 6,-12 -3,-16 -9,-4 -23,-3 -31,2 -15,9 -33,14 -50,17l-2 -2c14,-4 29,-10 39,-20 5,-5 1,-11 -10,-14 -11,-3 -24,-1 -29,5 -9,8 -23,12 -33,13 -32,-12 -72,-19 -115,-19zm-1534 0c-43,0 -83,7 -115,19 -10,-1 -26,-5 -35,-13 -6,-6 -19,-8 -30,-5 -10,3 -15,9 -9,14 10,11 26,17 41,21l-2 1c-17,-2 -37,-7 -53,-17 -8,-5 -21,-6 -31,-2 -9,4 -11,11 -3,16 19,11 42,18 64,22l0 0c-21,-1 -43,-3 -66,-11 -10,-3 -23,-1 -30,4 -6,5 -3,12 7,15 23,7 46,11 68,13l8 0c-2,6 -3,12 -3,17 0,53 85,95 189,95 104,0 189,-42 189,-95 0,-52 -85,-94 -189,-94l0 0z"/>
   <path class="fil4" d="M7657 16331c-3,6 -17,10 -29,8 -13,-2 -20,-9 -16,-15 0,-1 346,-292 530,-277l-52 20c-183,82 -432,263 -433,264z"/>
   <path class="fil4" d="M5458 16327c4,6 17,10 30,8 12,-2 20,-9 16,-15 0,-1 -350,-265 -534,-250l28 6 23 8c182,82 437,242 437,243z"/>
   <path class="fil4" d="M5514 16774c13,0 25,-4 26,-11 1,-6 -8,-12 -21,-13l-8 0c-268,-17 -501,-216 -520,-334 -16,-4 -33,-9 -49,-15 12,133 263,354 563,372l9 1z"/>
   <path class="fil4" d="M7588 16774c-13,0 -25,-4 -26,-11 -1,-6 8,-12 21,-13l8 0c268,-17 550,-216 568,-334 17,-4 34,-9 50,-15 -13,133 -312,354 -612,372l-9 1z"/>
   <path class="fil5" d="M6553 16274l1086 29c0,0 44,6 42,26 -1,20 -39,405 -39,405 0,0 -2,35 -45,65 -43,29 -385,311 -1044,311 -659,0 -1001,-282 -1044,-311 -43,-30 -45,-65 -45,-65 0,0 -38,-385 -39,-405 -2,-20 42,-26 42,-26l1086 -29z"/>
   <path class="fil13" d="M6553 16316l-1044 28c10,129 27,259 39,388 1,14 13,31 29,42 29,20 55,40 86,60 57,36 121,70 191,100 200,85 435,134 699,134 265,0 500,-49 699,-134 70,-30 134,-64 191,-100 31,-20 57,-40 86,-60 16,-11 28,-28 30,-42 11,-129 29,-259 38,-388l-1044 -28z"/>
   <path class="fil4" d="M7562 16696c4,-37 8,-74 12,-111l-718 -25 706 136zm-2016 19l2 17c1,14 13,31 29,42 29,20 55,40 86,60 57,36 121,70 191,100 200,85 435,134 699,134 265,0 500,-49 699,-134 70,-30 134,-64 191,-100 31,-20 57,-40 86,-60 5,-3 9,-6 13,-10 0,0 -170,92 -757,92 -588,0 -1239,-141 -1239,-141l0 0zm-21 -203c5,50 11,101 16,151l963 -186 -979 35 0 0z"/>
   <path class="fil12" d="M3866 17574c0,0 -342,57 -505,220 -163,163 -1310,1487 -1364,1628 -53,136 -145,525 354,1423l1391 0c-54,-115 -360,-1076 -408,-1102l604 -821c0,0 708,-990 -72,-1348z"/>
   <path class="fil12" d="M9259 17574c0,0 342,57 505,220 163,163 1310,1487 1364,1628 52,136 145,525 -354,1423l-1391 0c54,-115 360,-1076 408,-1102l-604 -821c0,0 -708,-990 72,-1348z"/>
   <path class="fil1" d="M21416 15777l-83 -73c0,0 -157,-435 -146,-587 11,-153 283,-343 1055,-517 771,-174 1380,185 1554,261 0,0 826,-16 1032,98 207,114 48,788 48,788l-3460 30zm157 441l-257 55c0,0 36,561 -225,947 -261,386 -53,713 368,634 0,0 24,236 373,290 349,54 783,97 783,97l1174 36c0,0 1115,175 1198,-565 0,0 379,-9 385,-267 6,-257 -516,-676 -516,-1209 0,-533 -3283,-18 -3283,-18l0 0z"/>
   <path class="fil7" d="M21025 20841c149,-392 43,-752 -109,-1287 -289,-280 -509,-789 -356,-1154 152,-365 112,-777 112,-777 0,0 1495,-273 1622,-304 128,-32 139,-166 139,-166l671 -72 672 72c0,0 11,134 139,166 127,31 1564,190 1564,190 0,0 18,526 170,891 153,365 -68,874 -356,1154 -152,535 -258,895 -109,1287l-4159 0z"/>
   <path class="fil7" d="M23104 16307l0 0c370,0 672,151 672,336l0 643c0,185 -302,336 -672,336l0 0c-369,0 -672,-151 -672,-336l0 -643c0,-185 303,-336 672,-336z"/>
   <path class="fil2" d="M24570 16011c10,1 21,2 31,3l0 0 0 0c191,21 335,105 337,206 3,119 -186,215 -422,217 -237,1 -430,-93 -433,-211 -2,-69 61,-131 161,-170 -12,63 7,141 168,149l-3 -123c-1,-50 92,-72 161,-71z"/>
   <path class="fil2" d="M21645 16001c-11,1 -21,2 -32,3l0 0 0 0c-191,19 -337,102 -342,204 -6,118 180,216 416,219 236,3 433,-90 439,-208 4,-69 -58,-131 -156,-171 10,63 -12,141 -173,148l6 -123c3,-50 -90,-73 -158,-72z"/>
   <path class="fil7" d="M23105 17082c-799,0 -1465,-492 -1465,-881l0 -517c0,-403 659,-732 1464,-732l1 0c805,0 1464,329 1464,732l0 506c0,426 -581,892 -1464,892z"/>
   <path class="fil2" d="M23970 15421c0,0 -248,-56 -533,27 -285,83 -712,418 -1505,375 -794,-43 1038,-421 1038,-421 0,0 924,-231 973,-218 48,14 27,237 27,237z"/>
   <path class="fil2" d="M24163 16339c-133,1 -239,57 -237,123 3,67 113,120 246,119 133,-1 240,-56 237,-123 -2,-67 -112,-120 -246,-119z"/>
   <path class="fil2" d="M22037 16358c-134,2 -240,57 -237,124 2,66 112,119 246,118 133,-1 239,-56 237,-123 -3,-67 -113,-120 -246,-119z"/>
   <path class="fil1" d="M22669 15831c31,7 45,26 31,41 -14,15 -51,22 -81,15 -1,0 -186,-44 -363,12 -28,9 -66,5 -85,-10 -18,-14 -9,-33 20,-42 233,-74 478,-16 478,-16z"/>
   <path class="fil1" d="M24117 15845c30,8 40,27 24,42 -16,15 -54,20 -83,12 -1,0 -178,-52 -363,-3 -30,7 -68,2 -83,-14 -16,-15 -4,-33 26,-41 244,-64 479,4 479,4z"/>
   <path class="fil5" d="M22742 16556c-2,120 190,218 429,219 240,1 436,-95 438,-215l-1 0c0,-21 -33,-38 -74,-38l-716 -3c-41,0 -75,16 -76,37l0 0z"/>
   <path class="fil5" d="M22900 16725c74,31 168,49 271,50 84,0 163,-12 230,-32 -32,-45 -129,-78 -246,-81 -112,-3 -211,24 -255,63z"/>
   <path class="fil5" d="M23510 16522l-673 -3c-11,37 22,75 72,83 61,11 548,6 583,-13 16,-9 19,-39 18,-67z"/>
   <path class="fil15" d="M23204 16216c32,45 86,126 82,138 -7,18 -193,23 -242,-4 -33,-18 7,-85 43,-130 48,-60 75,-64 117,-4z"/>
   <path class="fil5" d="M24694 17420l-289 1947 594 8c0,0 115,941 331,1466l-4433 0c216,-525 332,-1466 332,-1466l593 -8 -289 -1947c846,692 2315,692 3161,0z"/>
   <path class="fil5" d="M23808 17657c0,0 -74,-45 -99,-78 -24,-33 -16,-55 58,-92 73,-37 352,-166 405,-191 54,-24 109,-13 138,1 28,15 136,80 136,80 0,0 -185,174 -638,280z"/>
   <path class="fil17" d="M23808 17657c-9,15 -614,1441 -717,1772 -10,30 -210,584 -210,594 0,14 330,443 617,822l2541 0c-160,-438 -437,-1168 -438,-1192 -4,-53 144,-718 144,-718 0,0 -374,-982 247,-1266 0,0 -59,-52 -182,-99 -123,-47 -1364,-193 -1364,-193l-638 280z"/>
   <path class="fil18" d="M23197 19138c-49,125 -87,228 -106,291 -10,30 -210,584 -210,594 0,14 330,443 617,822l777 0 -945 -1320 515 -502 -330 -14c0,0 -136,54 -318,129z"/>
   <path class="fil19" d="M23559 18246c-212,509 -483,1173 -483,1244l1325 -804 -304 -582c0,0 -244,63 -538,142z"/>
   <path class="fil2" d="M22435 17314l1000 -197 341 -68 0 -68c-193,63 -416,100 -662,101 -3,0 -6,0 -10,0 -3,0 -6,0 -9,0 -237,-1 -463,-46 -663,-118l0 194c-3,24 -25,132 -138,161 -19,4 -70,12 -142,22 14,7 28,13 43,20l240 -47z"/>
   <path class="fil1" d="M23872 16028c-105,0 -189,42 -189,94 0,52 84,95 189,95 104,0 188,-43 188,-95 0,-6 -1,-11 -3,-17l6 0c22,-2 45,-6 68,-13 10,-4 13,-10 6,-16 -6,-5 -20,-6 -30,-3 -21,7 -43,10 -63,11l0 -1c21,-4 43,-10 62,-22 7,-4 6,-11 -4,-15 -9,-4 -23,-3 -30,2 -15,9 -34,14 -51,16l-2 -1c14,-4 29,-10 39,-20 5,-5 1,-12 -10,-15 -10,-2 -24,0 -29,5 -8,9 -23,12 -33,14 -32,-12 -71,-19 -114,-19zm-1535 0c-43,0 -83,7 -115,19 -10,-1 -26,-5 -35,-14 -6,-5 -19,-7 -29,-5 -11,3 -16,10 -10,15 10,10 26,17 41,21l-2 1c-17,-3 -37,-8 -53,-17 -7,-5 -21,-6 -30,-2 -10,4 -11,11 -4,15 19,12 43,19 64,23l0 0c-20,-1 -43,-4 -65,-11 -11,-3 -24,-2 -31,3 -6,6 -3,12 7,16 23,7 46,11 68,13l8 0c-2,6 -3,11 -3,17 0,52 85,95 189,95 105,0 189,-43 189,-95 0,-52 -84,-94 -189,-94l0 0z"/>
   <path class="fil4" d="M24208 16326c-3,7 -17,10 -29,8 -13,-1 -20,-8 -16,-14 0,-1 346,-292 530,-278l-52 20c-183,83 -432,264 -433,264z"/>
   <path class="fil4" d="M22009 16322c4,7 17,10 30,8 13,-2 20,-8 16,-14 0,-1 -350,-265 -534,-250l29 6 22 7c183,82 437,243 437,243z"/>
   <path class="fil4" d="M22065 16769c13,1 25,-3 26,-10 2,-7 -8,-12 -21,-13l-8 -1c-268,-16 -501,-215 -519,-333 -17,-5 -34,-10 -50,-15 13,133 263,353 563,372l9 0z"/>
   <path class="fil4" d="M24139 16769c-13,1 -24,-3 -26,-10 -1,-7 8,-12 21,-13l9 -1c267,-16 549,-215 568,-333 16,-5 33,-10 49,-15 -12,133 -312,353 -612,372l-9 0z"/>
   <path class="fil5" d="M23104 16270l1086 29c0,0 44,6 43,26 -2,20 -40,405 -40,405 0,0 -2,34 -45,64 -43,30 -385,312 -1044,312 -659,0 -1001,-282 -1044,-312 -43,-30 -45,-64 -45,-64 0,0 -38,-385 -39,-405 -1,-20 42,-26 42,-26l1086 -29z"/>
   <path class="fil13" d="M23104 16312l-1043 27c9,130 26,260 38,389 1,14 13,31 29,42 29,20 55,40 86,60 58,36 122,70 192,100 199,85 434,134 698,134 265,0 500,-49 699,-134 70,-30 134,-64 191,-100 32,-20 58,-40 87,-60 16,-11 28,-28 29,-42 11,-129 29,-259 38,-389l-1044 -27z"/>
   <path class="fil4" d="M24113 16692c4,-37 8,-74 12,-111l-718 -26 706 137zm-2016 19l2 17c1,14 13,31 29,42 29,20 55,40 86,60 58,36 122,70 192,100 199,85 434,134 698,134 265,0 500,-49 699,-134 70,-30 134,-64 191,-100 32,-20 58,-40 87,-60 4,-3 8,-7 12,-10 0,0 -169,91 -757,91 -588,0 -1239,-140 -1239,-140l0 0zm-21 -204c5,51 11,101 16,152l963 -186 -979 34 0 0z"/>
   <path class="fil20" d="M25810 17570c0,0 342,57 505,220 163,163 1310,1486 1364,1628 53,136 145,525 -354,1423l-1391 0c54,-115 360,-1076 408,-1103l-659 -662c0,0 -653,-1149 127,-1506z"/>
   <path class="fil1" d="M21640 16201c0,0 170,-61 170,-210 0,0 271,-126 250,-259 -22,-133 -322,-310 -322,-310 0,0 -271,84 -368,177 -98,92 27,473 27,473 0,0 184,-68 243,129z"/>
   <path class="fil1" d="M24569 16201c0,0 -170,-61 -170,-210 0,0 -272,-126 -250,-259 22,-133 322,-310 322,-310 0,0 270,84 368,177 98,92 -27,473 -27,473 0,0 -185,-68 -243,129z"/>
   <path class="fil1" d="M23487 15359c-335,48 -610,242 -944,340 245,-38 444,-129 624,-211 112,-51 217,-99 320,-129zm393 16l-5 -1c-8,2 -17,2 -24,0 -216,-63 -415,27 -648,134 -236,107 -506,230 -869,237 -33,4 -66,8 -100,10 -623,36 -908,-388 -331,-669 619,-301 1971,-345 2126,139 0,0 28,103 -149,150l0 0z"/>
   <path class="fil1" d="M23851 15374c0,0 -33,357 374,408 408,52 549,-212 348,-467 -201,-256 -706,-370 -810,-351 -103,19 88,410 88,410z"/>
   <path class="fil20" d="M23808 17657c-6,9 -225,524 -422,1006l1472 -776 -239 -490c-105,-12 -173,-20 -173,-20l-638 280z"/>
   <path class="fil5" d="M22401 17657c0,0 74,-45 99,-78 24,-33 16,-55 -58,-92 -74,-37 -352,-166 -406,-191 -53,-24 -108,-13 -137,1 -29,15 -136,80 -136,80 0,0 185,174 638,280z"/>
   <path class="fil17" d="M22401 17657c10,16 732,1717 732,1833 0,16 -3,797 -5,1355l-2959 0c161,-438 438,-1168 439,-1192 4,-53 -144,-718 -144,-718 0,0 374,-982 -247,-1266 0,0 59,-52 182,-99 123,-47 1364,-193 1364,-193l638 280z"/>
   <path class="fil19" d="M22650 18246c212,509 483,1173 483,1244l-1326 -804 305 -582c0,0 244,63 538,142z"/>
   <path class="fil20" d="M20399 17570c0,0 -342,57 -505,220 -163,163 -1310,1486 -1364,1628 -53,136 -145,525 353,1423l1392 0c-54,-115 -361,-1076 -409,-1103l667 -691c0,0 646,-1120 -134,-1477z"/>
   <path class="fil20" d="M22401 17657c5,9 225,524 422,1006l-1472 -776 238 -490c106,-12 174,-20 174,-20l638 280z"/>
   <path class="fil5" d="M22923 19655c41,0 76,-17 76,-38 0,-21 -35,-38 -76,-38 -42,0 -76,17 -76,38 0,21 34,38 76,38z"/>
   <path class="fil5" d="M22923 20022c41,0 76,-17 76,-38 0,-21 -35,-38 -76,-38 -42,0 -76,17 -76,38 0,21 34,38 76,38z"/>
   <path class="fil2" d="M14824 15473l0 0c463,0 841,323 841,719l0 583c0,396 -378,719 -841,719l0 0c-462,0 -840,-323 -840,-719l0 -583c0,-396 378,-719 840,-719z"/>
   <path class="fil21" d="M17484 16901c0,0 492,66 774,370 281,305 967,1266 1138,1536 171,269 -451,1423 -1244,2038l-1042 0c0,0 1007,-1538 1050,-1686 44,-148 -952,-1009 -952,-1009 -275,-432 -258,-862 276,-1249z"/>
   <path class="fil22" d="M19392 19129c-129,464 -635,1247 -1240,1716l-646 0c-104,-71 -178,-124 -178,-124l100 -365c1160,598 1833,-861 1964,-1227z"/>
   <path class="fil1" d="M15045 16948l-136 8 -85 29 -84 -29 -136 -8 -803 -315 -1742 353 -87 836c130,831 520,2163 520,2228 0,64 -277,515 -448,790l5541 0c-171,-275 -448,-726 -448,-790 0,-65 410,-1397 540,-2228l-87 -836 -1743 -353 -802 315z"/>
   <polygon class="fil11" points="15012,17167 15050,17267 15430,19744 14824,20388 14219,19744 14599,17267 14636,17167 14824,17228 "/>
   <path class="fil12" d="M15012 17167l38 100 380 2477 -606 644c0,0 356,-555 370,-640 14,-86 -214,-2449 -281,-2471 -67,-22 -200,-20 -200,-20l85 -38 26 9 188 -61z"/>
   <path class="fil1" d="M14659 16962l81 -6c0,0 16,7 18,20 3,13 5,50 5,50l-63 10c0,0 -123,2 -122,-1 1,-2 81,-73 81,-73z"/>
   <path class="fil1" d="M14990 16962l-81 -6c0,0 -16,7 -19,20 -2,13 -4,50 -4,50l62 10c0,0 124,2 123,-1 -1,-2 -81,-73 -81,-73z"/>
   <path class="fil11" d="M14599 17267l-178 -195c154,-72 653,-72 806,0l-177 195c-125,-17 -326,-17 -451,0z"/>
   <path class="fil12" d="M14828 17018c162,0 323,18 399,54l-177 195c-48,-7 -108,-10 -170,-12 33,-13 78,-32 79,-36 2,-7 -1,-175 -15,-178l-116 -23zm-336 132l-71 -78c56,-26 156,-42 268,-50l-197 128 0 0z"/>
   <path class="fil3" d="M15665 16465c0,0 73,-6 98,0 25,5 210,258 175,309 -35,51 -493,471 -493,471 0,0 -32,22 -85,1 -52,-22 -451,-290 -451,-290l756 -458 0 -33z"/>
   <path class="fil21" d="M15915 16616l1542 279c33,6 352,70 390,301 18,109 -134,624 -262,1225 -157,741 -298,1586 -298,1629 0,77 280,520 451,794l-2248 0 393 -4198c0,0 2,-22 32,-30z"/>
   <path class="fil3" d="M13984 16463c0,0 -73,-5 -98,0 -25,5 -110,193 -162,230 0,0 -48,30 -13,81 35,51 493,471 493,471 0,0 32,22 85,1 52,-22 451,-290 451,-290l-756 -459 0 -34z"/>
   <path class="fil21" d="M13734 16639l-1543 256c-32,6 -352,70 -390,301 -18,112 158,649 289,1268 155,727 271,1544 271,1586 0,77 -279,520 -450,794l2248 0 -425 -4081c0,0 30,-115 0,-124z"/>
   <path class="fil22" d="M17799 16984c-140,199 -533,857 -158,1534 2,5 -4,10 -13,12 -20,-18 -39,-36 -58,-54 -339,-674 57,-1320 190,-1506 13,4 26,9 39,14z"/>
   <path class="fil21" d="M12192 16901c0,0 -492,66 -774,370 -281,305 -967,1266 -1138,1536 -171,269 451,1423 1244,2038l1042 0c0,0 -1007,-1538 -1050,-1686 -43,-148 952,-1009 952,-1009 275,-432 258,-862 -276,-1249z"/>
   <path class="fil22" d="M10284 19129c129,464 635,1247 1240,1716l478 0c9,-6 195,-489 204,-540 -188,67 -347,141 -757,73 -518,-86 -1030,-872 -1165,-1249z"/>
   <path class="fil22" d="M11535 19203c-10,-19 -16,-35 -19,-44 -26,-87 273,-407 552,-666 44,-41 78,394 118,358 -14,-85 19,-625 17,-629 -10,-24 -695,672 -735,727 -40,54 67,254 67,254l0 0z"/>
   <path class="fil22" d="M11877 16984c140,199 533,857 158,1534 -2,5 4,10 14,12 19,-18 38,-36 57,-54 339,-674 -57,-1320 -190,-1506 -13,4 -26,9 -39,14z"/>
   <path class="fil22" d="M15927 16625l410 76c111,125 497,557 480,572 -20,17 -605,67 -605,67 0,0 447,93 462,98 15,6 40,15 30,48 -8,28 -920,2055 -1159,2587l350 -3418c0,0 1,-22 32,-30z"/>
   <path class="fil23" d="M15968 17278l590 106c0,0 60,17 55,36 -5,20 -1060,2538 -1060,2538l189 -2653 226 -27z"/>
   <path class="fil24" d="M15621 18990l120 -1685 36 -5c-63,687 -156,1692 -156,1692l0 -2z"/>
   <path class="fil5" d="M15897 16613l305 53c0,0 27,4 35,19 9,16 430,509 440,527 10,17 -17,36 -75,44 -57,9 -865,119 -865,119l119 -740c0,0 5,-22 41,-22z"/>
   <path class="fil22" d="M13692 16636l-381 65c-111,125 -497,557 -480,572 20,17 605,67 605,67 0,0 -448,93 -463,98 -15,6 -40,15 -30,48 9,28 921,2055 1160,2587l-399 -3351c0,0 19,-77 -12,-86z"/>
   <path class="fil23" d="M13680 17278l-590 106c0,0 -60,17 -55,36 5,20 1060,2538 1060,2538l-190 -2653 -225 -27z"/>
   <path class="fil24" d="M14027 18990l-120 -1685 -36 -5c63,687 156,1692 156,1692l0 -2z"/>
   <path class="fil5" d="M13763 16622l-317 44c0,0 -27,4 -35,19 -9,16 -430,509 -440,527 -10,17 17,36 75,44 57,9 864,119 864,119 0,0 -123,-583 -147,-753z"/>
   <path class="fil6" d="M16351 15353c11,1 22,2 33,3l1 0 0 0c204,22 358,113 360,221 3,127 -199,231 -452,232 -253,2 -461,-100 -464,-226 -2,-74 66,-139 173,-182 -13,68 7,151 180,160l-3 -132c-2,-53 98,-77 172,-76z"/>
   <path class="fil6" d="M13332 15353c-12,1 -23,2 -34,3l0 0 0 0c-205,20 -361,110 -367,218 -7,127 193,232 446,235 253,4 463,-96 470,-223 4,-73 -62,-140 -168,-183 11,68 -12,151 -184,159l7 -132c2,-53 -97,-78 -170,-77z"/>
   <path class="fil7" d="M14838 16500c-855,0 -1569,-527 -1569,-944l0 -553c0,-432 706,-785 1569,-785l0 0c863,0 1569,353 1569,785l0 541c0,457 -623,956 -1569,956z"/>
   <path class="fil2" d="M13287 14838c115,-376 768,-666 1551,-666l0 0c758,0 1395,272 1538,630 -217,1 -459,137 -459,137 -1466,349 -2370,4 -2370,4 -104,-34 -190,-69 -260,-105z"/>
   <path class="fil2" d="M15915 15536c-146,1 -262,61 -260,134 3,73 124,131 270,130 146,-1 262,-62 259,-135 -3,-73 -123,-131 -269,-129z"/>
   <path class="fil2" d="M13751 15557c-146,1 -262,61 -259,134 3,73 123,131 269,130 146,-1 262,-62 260,-135 -3,-73 -124,-131 -270,-129z"/>
   <path class="fil1" d="M14317 15172c33,7 48,27 33,43 -15,17 -54,24 -87,17 -1,0 -199,-47 -388,12 -31,10 -72,5 -91,-10 -19,-16 -10,-36 21,-46 250,-78 511,-16 512,-16z"/>
   <path class="fil1" d="M15868 15187c32,8 43,28 26,44 -18,16 -58,22 -89,13 -1,0 -191,-55 -389,-3 -32,8 -72,2 -89,-14 -17,-17 -4,-36 28,-45 262,-68 513,4 513,5z"/>
   <path class="fil8" d="M14880 15574c30,40 81,111 76,123 -6,17 -180,33 -225,11 -31,-15 7,-80 40,-123 45,-60 70,-65 109,-11z"/>
   <path class="fil9" d="M15168 15887c0,91 -148,165 -330,165 -182,0 -330,-74 -330,-165 0,-16 28,-30 61,-30l538 0c33,0 61,14 61,30z"/>
   <path class="fil5" d="M14602 15857l472 0 0 28c0,14 -24,26 -53,26l-366 0c-29,0 -53,-12 -53,-26l0 -28z"/>
   <path class="fil10" d="M15077 16001c-60,31 -145,51 -239,51 -94,0 -179,-20 -239,-51 60,-32 145,-51 239,-51 94,0 179,19 239,51z"/>
   <path class="fil1" d="M14071 15517c104,0 189,-42 189,-94 0,-52 -85,-95 -189,-95 -104,0 -189,43 -189,95 0,52 85,94 189,94z"/>
   <path class="fil1" d="M15605 15517c104,0 189,-42 189,-94 0,-52 -85,-95 -189,-95 -104,0 -189,43 -189,95 0,52 85,94 189,94z"/>
   <path class="fil1" d="M13269 15534l152 -307c0,0 488,-179 315,-428 -174,-249 -208,-224 -208,-224 0,0 -650,146 -361,807l102 152z"/>
   <path class="fil1" d="M16407 15534l-152 -307c0,0 -488,-179 -315,-428 174,-249 208,-224 208,-224 0,0 650,146 361,807l-102 152z"/>
   <path class="fil4" d="M16056 15690c-3,7 -17,10 -29,8 -13,-1 -20,-8 -16,-14 0,-1 120,-205 327,-289l12 25c-182,82 -293,270 -294,270z"/>
   <path class="fil4" d="M15998 16162c-13,1 -25,-4 -26,-11 -2,-6 8,-12 21,-13l8 0c142,-9 259,-75 337,-154 61,-61 98,-131 107,-189 17,-3 33,-6 49,-10 -6,63 -46,141 -113,210 -85,85 -213,156 -374,166l-9 1z"/>
   <path class="fil4" d="M13620 15690c4,7 17,10 30,8 12,-1 19,-8 16,-14 -1,-1 -121,-205 -327,-289l-13 25c183,82 294,270 294,270z"/>
   <path class="fil4" d="M13678 16162c13,1 25,-4 26,-11 2,-6 -8,-12 -21,-13l-8 0c-142,-9 -259,-75 -337,-154 -60,-61 -98,-131 -107,-189 -16,-3 -33,-6 -49,-10 6,63 46,141 113,210 85,85 214,156 374,166l9 1z"/>
   <path class="fil5" d="M14838 15599l1222 33c0,0 49,7 47,29 -1,23 -44,456 -44,456 0,0 -2,38 -51,72 -48,34 -432,351 -1174,351 -741,0 -1126,-317 -1174,-351 -49,-34 -51,-72 -51,-72 0,0 -43,-433 -44,-456 -2,-22 47,-29 47,-29l1222 -33z"/>
   <path class="fil13" d="M14838 15646l-1174 32c10,145 30,291 43,436 1,16 15,35 33,48 33,23 62,45 97,67 64,41 136,79 215,112 224,96 488,152 786,152 298,0 562,-56 786,-152 79,-33 151,-71 215,-112 35,-22 65,-44 97,-67 18,-13 32,-32 33,-48 13,-145 33,-291 43,-436l-1174 -32z"/>
   <path class="fil4" d="M15973 16074c4,-42 9,-84 13,-125l-808 -28 795 153zm-2268 21l2 19c1,16 15,35 33,48 33,23 62,45 97,67 64,41 136,79 215,112 224,96 488,152 786,152 298,0 562,-56 786,-152 79,-33 151,-71 215,-112 35,-22 65,-44 97,-67 5,-4 10,-8 14,-12 0,0 -190,103 -852,103 -661,0 -1393,-158 -1393,-158l0 0zm-24 -229c6,57 13,114 19,171l1083 -209 -1102 38 0 0z"/>
   <path class="fil1" d="M13706 14878c0,0 839,346 2200,-3 0,0 349,-213 568,-108 0,0 86,-587 -758,-593 0,0 152,-82 109,-149 -44,-67 -400,-227 -1150,10 0,0 -56,-173 -336,-178 -545,-11 -1807,613 -633,1021z"/>
   <path class="fil22" d="M18141 19203c10,-19 16,-35 19,-44 26,-88 -269,-411 -551,-673 -39,-35 -126,586 -161,554 14,-85 23,-814 25,-818 10,-24 695,672 735,727 40,54 -67,254 -67,254l0 0z"/>
   <path class="fil25" style="mask:url(#id4)" d="M6981 11173l451 0 252 -503 244 503 450 0 399 -764 -401 0 -222 556 -261 -556 -409 0 -272 556 -220 -556 -398 0 387 764zm2919 -764l-936 0 0 764 936 0 0 -149 -564 0 0 -168 499 0 0 -143 -499 0 0 -155 564 0 0 -149zm703 764l372 0 0 -309 466 0 0 -145 -466 0 0 -161 623 0 0 -149 -995 0 0 764zm1191 0l372 0 0 -764 -372 0 0 764zm1356 -773c-457,0 -777,161 -777,390 0,228 322,388 779,388 403,0 657,-131 736,-263l0 -173 -810 0 0 137 472 0c-56,86 -185,135 -370,135 -268,0 -429,-83 -429,-224 0,-133 159,-218 399,-218 139,0 243,27 300,79l411 0c-80,-157 -346,-251 -711,-251zm1896 773l372 0 0 -764 -372 0 0 299 -579 0 0 -299 -373 0 0 764 373 0 0 -315 579 0 0 315zm557 -615l405 0 0 615 372 0 0 -615 405 0 0 -149 -1182 0 0 149zm1748 0l405 0 0 615 372 0 0 -615 405 0 0 -149 -1182 0 0 149zm2320 615l372 0 0 -764 -372 0 0 299 -579 0 0 -299 -372 0 0 764 372 0 0 -315 579 0 0 315zm640 0l372 0 0 -764 -372 0 0 764zm1752 -228c0,-255 -755,-195 -755,-328 0,-48 67,-71 157,-70 100,1 169,31 176,80l403 0c-16,-146 -240,-229 -573,-229 -320,0 -557,81 -557,225 -4,271 760,195 760,337 0,44 -70,71 -179,71 -104,0 -178,-28 -189,-87l-396 0c10,155 267,237 596,237 357,0 557,-107 557,-236z"/>
  </g>
 </g>
</svg>
