<svg width="64" height="64" xmlns="http://www.w3.org/2000/svg">

 <g>
  <title>background</title>
  <rect fill="none" id="canvas_background" height="402" width="582" y="-1" x="-1"/>
 </g>
 <g>
  <title>Layer 1</title>
  <path fill="#ffffff" id="svg_1" d="m46.2,26.6c-0.9,-1.3 -2.4,-0.8 -3.3,-0.6c-0.2,0.1 -0.4,0.1 -0.6,0.2c0,-0.2 0.1,-0.4 0.2,-0.6c0.3,-1 0.8,-2.4 -0.5,-3.3c-1.2,-0.8 -2.4,0.1 -3.2,0.7c-0.1,0.1 -0.3,0.2 -0.4,0.3c0,-0.2 0,-0.4 0,-0.5c0,-0.9 -0.1,-2.5 -1.6,-2.9c-1.4,-0.3 -2.2,1 -2.8,1.8c-0.1,0.1 -0.2,0.3 -0.3,0.4c-0.1,-0.2 -0.1,-0.3 -0.2,-0.5c-0.4,-0.9 -0.9,-2.3 -2.5,-2.2c-1.5,0.2 -1.8,1.7 -2,2.6c0,0.1 -0.1,0.3 -0.1,0.5c-0.1,-0.1 -0.2,-0.3 -0.3,-0.4c-0.7,-0.8 -1.7,-1.9 -3.1,-1.3c-1.3,0.7 -1.1,2.2 -1,3.2c0,0.2 0.1,0.4 0.1,0.6c-0.2,-0.1 -0.3,-0.2 -0.5,-0.2c-0.8,-0.4 -2.3,-1.2 -3.4,-0.1c-1,1.1 -0.3,2.4 0.2,3.3c0.1,0.2 0.2,0.5 0.3,0.7c-0.2,0 -0.5,0 -0.7,0c-1,-0.1 -2.6,-0.2 -3.2,1.3c-0.2,0.5 0,1.1 0.5,1.3c0.5,0.2 1.1,0 1.3,-0.5c0.1,-0.2 0.8,-0.1 1.2,-0.1c0.9,0.1 2,0.1 2.6,-0.8c0.6,-0.9 0.1,-2 -0.3,-2.8c-0.1,-0.3 -0.4,-0.8 -0.4,-1c0.2,0 0.7,0.3 1,0.4c0.8,0.4 1.8,0.9 2.7,0.3c0.9,-0.6 0.8,-1.8 0.6,-2.7c0,-0.3 -0.1,-0.8 -0.1,-1c0.2,0.2 0.5,0.5 0.7,0.7c0.6,0.7 1.4,1.5 2.4,1.2c1.1,-0.3 1.3,-1.4 1.5,-2.3c0.1,-0.3 0.2,-0.7 0.2,-0.9c0.1,0.2 0.3,0.6 0.4,0.9c0.3,0.9 0.8,1.9 1.8,2c1.1,0.1 1.7,-0.9 2.2,-1.6c0.1,-0.2 0.4,-0.6 0.5,-0.8c0.1,0.3 0.1,0.7 0.1,1c0,0.9 0.1,2.1 1.1,2.5c1,0.5 1.9,-0.2 2.6,-0.8c0.2,-0.2 0.6,-0.5 0.8,-0.6c0,0.3 -0.2,0.7 -0.3,1c-0.3,0.9 -0.6,2 0.1,2.7c0.8,0.8 1.9,0.5 2.7,0.3c0.3,-0.1 1,-0.3 1.1,-0.3c0,0.2 -0.4,0.7 -0.6,1c-0.5,0.7 -1.3,1.7 -0.8,2.7c0.2,0.4 0.5,0.6 0.9,0.6c0.1,0 0.3,0 0.4,-0.1c0.5,-0.2 0.7,-0.7 0.5,-1.2c0.1,-0.2 0.3,-0.6 0.5,-0.8c0.9,-0.8 1.8,-2 1,-3.3z" class="st0"/>
  <path fill="#ffffff" id="svg_2" d="m56.9,42.9c-1.1,-0.7 -2.5,-0.5 -3.4,0.3l-2.8,-1.6c1,-2 1.7,-4.1 2.1,-6.4l4,0.4l0.2,-2l-4,-0.4c0,-0.4 0.1,-0.8 0.1,-1.2s0,-0.8 -0.1,-1.2l4,-0.4l-0.2,-2l-4,0.4c-0.3,-2.3 -1.1,-4.4 -2.1,-6.4l2.8,-1.6c0.9,0.8 2.3,1 3.4,0.3c1.4,-0.8 1.9,-2.7 1.1,-4.1s-2.7,-1.9 -4.1,-1.1c-1.1,0.7 -1.7,1.9 -1.4,3.1l-2.8,1.6c-1.2,-1.9 -2.8,-3.6 -4.5,-5l2.4,-3.3l-1.6,-1.2l-2.4,3.3c-0.7,-0.4 -1.4,-0.8 -2.1,-1.2l1.6,-3.7l-1.8,-0.8l-1.6,3.7c-2.1,-0.8 -4.3,-1.3 -6.6,-1.4l0,-3.2c1.2,-0.4 2,-1.5 2,-2.8c0,-1.7 -1.3,-3 -3,-3s-3,1.3 -3,3c0,1.3 0.8,2.4 2,2.8l0,3.2c-2.3,0.1 -4.5,0.6 -6.6,1.4l-1.6,-3.7l-1.8,0.8l1.6,3.7c-0.7,0.4 -1.4,0.8 -2.1,1.2l-2.4,-3.3l-1.6,1.2l2.4,3.3c-1.8,1.4 -3.3,3.1 -4.5,5l-2.9,-1.6c0.2,-1.2 -0.3,-2.5 -1.4,-3.1c-1.5,-0.8 -3.4,-0.3 -4.2,1.1s-0.3,3.3 1.1,4.1c1.1,0.7 2.5,0.5 3.4,-0.3l2.8,1.6c-1,2 -1.7,4.1 -2.1,6.4l-4,-0.4l-0.2,2l4,0.4c0,0.4 -0.1,0.8 -0.1,1.2s0,0.8 0.1,1.2l-4,0.4l0.2,2l4,-0.4c0.3,2.3 1.1,4.4 2.1,6.4l-2.8,1.6c-0.9,-0.8 -2.3,-1 -3.4,-0.3c-1.4,0.8 -1.9,2.7 -1.1,4.1s2.7,1.9 4.1,1.1c1.1,-0.7 1.7,-1.9 1.4,-3.1l2.8,-1.6c1.2,1.9 2.8,3.6 4.5,5l-2.4,3.3l1.6,1.2l2.4,-3.3c0.7,0.4 1.4,0.8 2.1,1.2l-1.6,3.7l1.8,0.8l1.6,-3.7c2.1,0.8 4.3,1.3 6.6,1.4l0,3.2c-1.2,0.4 -2,1.5 -2,2.8c0,1.7 1.3,3 3,3s3,-1.3 3,-3c0,-1.3 -0.8,-2.4 -2,-2.8l0,-3.2c2.3,-0.1 4.5,-0.6 6.6,-1.4l1.6,3.7l1.8,-0.8l-1.6,-3.7c0.7,-0.4 1.4,-0.8 2.1,-1.2l2.4,3.3l1.6,-1.2l-2.4,-3.3c1.8,-1.4 3.3,-3.1 4.5,-5l2.8,1.6c-0.2,1.2 0.3,2.5 1.4,3.1c1.4,0.8 3.3,0.3 4.1,-1.1s0.5,-3.3 -0.9,-4.1zm-12.9,3.9l-1.2,-1.6l-1.6,1.2l1.2,1.6c-0.6,0.4 -1.1,0.7 -1.7,1l-0.8,-1.8l-1.9,0.7l0.8,1.8c-1.8,0.7 -3.8,1.1 -5.8,1.2l0,-1.9l-2,0l0,1.9c-2,-0.1 -4,-0.5 -5.8,-1.2l0.8,-1.8l-1.8,-0.8l-0.8,1.8c-0.6,-0.3 -1.2,-0.6 -1.7,-1l1.2,-1.6l-1.6,-1.2l-1.3,1.7c-1.5,-1.3 -2.9,-2.7 -4,-4.4l1.7,-1l-1,-1.7l-1.7,1c-0.9,-1.7 -1.5,-3.6 -1.8,-5.6l1.9,-0.2l-0.2,-2l-1.8,0.1c0,-0.3 -0.1,-0.7 -0.1,-1s0,-0.7 0.1,-1l1.9,0.2l0.2,-2l-1.9,-0.2c0.3,-2 0.9,-3.9 1.8,-5.6l1.7,1l1,-1.7l-1.7,-1c1.1,-1.7 2.4,-3.2 4,-4.4l1.2,1.6l1.6,-1.2l-1.2,-1.6c0.6,-0.4 1.1,-0.7 1.7,-1l0.8,1.8l1.8,-0.8l-0.8,-1.8c1.8,-0.7 3.8,-1.1 5.8,-1.2l0,1.9l2,0l0,-1.9c2,0.1 4,0.5 5.8,1.2l-0.8,1.8l1.8,0.8l0.8,-1.8c0.6,0.3 1.2,0.6 1.7,1l-1.2,1.6l1.6,1.2l1.2,-1.6c1.5,1.3 2.9,2.7 4,4.4l-1.7,1l1,1.7l1.7,-1c0.9,1.7 1.5,3.6 1.8,5.6l-1.9,0.2l0.2,2l1.9,-0.2c0,0.3 0.1,0.7 0.1,1s0,0.7 -0.1,1l-1.9,-0.2l-0.2,2l1.9,0.2c-0.3,2 -0.9,3.9 -1.8,5.6l-1.7,-1l-1,1.7l1.7,1c-1.1,1.7 -2.4,3.2 -3.9,4.5z" class="st0"/>
 </g>
</svg>